<svg width="123" height="18" viewBox="0 0 123 18" fill="none" xmlns="http://www.w3.org/2000/svg">
  <path d="M30.063 7.31744L29.8589 8.35765H29.7976C29.5322 7.78655 28.7973 6.9707 27.1642 6.9707C24.5307 6.9707 21.8361 9.01033 21.244 12.2125C20.7337 15.0272 22.081 17.4952 25.2044 17.4952C26.3476 17.4952 27.6541 17.0465 28.3482 16.0878H28.4094L28.2257 17.1484H31.145L32.9618 7.31744H30.063ZM29.1035 12.2125C28.9198 13.1712 28.0012 14.7417 26.1639 14.7417C24.3674 14.7417 24 13.1712 24.1633 12.2533C24.3674 11.1315 25.3677 9.7242 27.0825 9.7242C28.7565 9.7446 29.3281 11.0703 29.1035 12.2125Z" fill="#0D2A54" />
  <path d="M34.6167 7.31744H37.3522L37.1685 8.35765H37.2297C37.5767 7.88853 38.2708 6.9707 39.9448 6.9707L39.3936 9.94855C38.0054 9.96895 37.0051 10.2545 36.7398 11.7638L35.7395 17.1484H32.7998L34.6167 7.31744Z" fill="#0D2A54" />
  <path d="M41.9045 3.48438H44.8646L43.4764 10.8882H43.5173L46.9264 7.31887H50.3969L45.9057 11.6429L48.4779 17.1499H45.1504L43.2519 12.4179H43.1906L42.3332 17.1499H39.3732L41.9045 3.48438Z" fill="#0D2A54" />
  <path d="M55.1111 6.9707C52.1307 6.9707 49.4768 9.54063 48.9869 12.2737C48.4357 15.1904 50.4159 17.4748 53.233 17.4748C54.2333 17.4748 55.2745 17.1688 56.1727 16.5773C57.1117 16.0062 57.9691 15.17 58.6224 14.0686H55.6215C55.1315 14.5785 54.56 14.9864 53.6617 14.9864C52.5185 14.9864 51.6611 14.293 51.7224 13.1304H59.0919C59.1736 12.906 59.2348 12.7224 59.2961 12.3553C59.8677 9.35707 58.112 6.9707 55.1111 6.9707ZM52.1307 11.1519C52.3552 10.5808 53.1718 9.45904 54.7028 9.45904C56.2339 9.45904 56.6014 10.5604 56.6014 11.1519H52.1307Z" fill="#0D2A54" />
  <path d="M17.3452 3.48438L12.16 11.2757H12.1192V3.48438H9.6082L0.401367 17.1499H3.97386L9.13867 9.3585H9.1795V17.1499H11.7109L16.8757 9.3585H16.9165V17.1499H19.8766V3.48438H17.3452Z" fill="#0D2A54" />
  <path d="M66.7674 7.31803H64.9097L65.4608 4.40137H62.8886L62.6845 5.52316C62.4599 6.80813 61.6434 7.19565 60.5818 7.31803H60.5614L60.1123 9.54122H61.5617L60.1531 17.1286H63.0928L64.5014 9.54122H66.3795L66.7674 7.31803Z" fill="#0D2A54" />
  <path d="M112.273 13.4411C111.314 15.6643 109.007 17.5 106.353 17.5C103.372 17.5 101.515 15.1544 102.046 12.2174C102.597 9.34149 105.251 6.99592 108.211 6.99592C110.803 6.99592 112.6 8.72961 112.661 11.1364H109.68C109.497 10.4429 109.048 9.74942 107.802 9.74942C106.414 9.68823 105.271 10.81 105.006 12.2378C104.74 13.6859 105.475 14.7465 106.884 14.7465C108.088 14.7465 108.823 14.053 109.252 13.4207L112.273 13.4411ZM87.9189 0L82.2029 3.48776H83.8156L78.6304 11.2791H78.5691V3.48776H76.0378L70.873 11.2791H70.8117V3.48776H67.8721V17.1533H70.4443L75.6295 9.36189H75.6907V17.1533H78.2221L87.3881 3.48776H88.8375L87.9189 0ZM93.492 17.1533H90.5727L90.7565 16.0927H90.6952C90.0011 17.0513 88.6946 17.5 87.5514 17.5C84.428 17.5 83.0807 15.0524 83.5911 12.2174C84.1626 9.01515 86.8777 6.97553 89.5112 6.97553C91.1239 6.97553 91.8792 7.77098 92.1446 8.36247H92.2059L92.41 7.32226H95.3293L93.492 17.1533ZM88.5517 14.7669C90.3686 14.7669 91.2872 13.1964 91.4914 12.2378C91.6955 11.0548 91.1443 9.74942 89.4704 9.74942C87.776 9.74942 86.7757 11.1568 86.5511 12.2786C86.3878 13.1964 86.7553 14.7669 88.5517 14.7669ZM102.678 7.32226H100.841L101.392 4.4056H98.8201L98.6159 5.52739C98.3914 6.81236 97.5748 7.19988 96.5133 7.32226H96.4725L96.0437 9.54545H97.4932L96.0846 17.1329H99.0242L100.433 9.54545H102.311L102.678 7.32226ZM115.049 3.48776H117.989L117.091 8.36247H117.152C117.785 7.44464 118.622 6.97553 119.928 6.97553C120.867 6.97553 121.929 7.32226 122.419 8.07693C123.052 9.03555 122.991 9.89219 122.644 11.6463L121.643 17.1329H118.704L119.683 11.789C119.765 11.3199 120.051 9.72902 118.499 9.72902C116.846 9.72902 116.56 11.1976 116.478 11.6871L115.478 17.1329H112.538L115.049 3.48776Z" fill="#00AC4E" />
</svg>