<svg width="35" height="40" viewBox="0 0 35 40" fill="none" xmlns="http://www.w3.org/2000/svg">
  <path d="M0.231445 35.8346H34.7949V0H0.231445V35.8346Z" fill="white" />
  <path d="M0.231445 35.8348V40.0001H34.7949V35.8348H0.231445Z" fill="#FF322E" />
  <path d="M19.4064 9.44434V26.8972H23.5912V12.9642H25.2729C27.2284 12.9642 28.3431 13.8931 28.3431 15.5846C28.3431 17.237 27.2284 18.205 25.2729 18.205H24.9992V21.7249H25.4489C29.9661 21.7249 32.6061 19.4565 32.6061 15.5846C32.6061 11.6443 29.9564 9.44434 25.4489 9.44434H19.4064ZM8.20141 9.44434L2.38379 26.8972H6.5979L10.548 14.558L12.5328 20.7276H9.97114L8.9445 24.2475H13.6573L14.5079 26.8972H18.8393L13.0217 9.44434H8.20141Z" fill="#0D2A54" />
</svg>