<svg width="74" height="27" viewBox="0 0 74 27" fill="none" xmlns="http://www.w3.org/2000/svg">
  <path fill-rule="evenodd" clip-rule="evenodd" d="M26.2232 8.10238V16.2048H30.1917V13.1158C30.1917 11.073 30.2041 9.95204 30.2227 9.80257C30.2661 9.48495 30.3777 9.17979 30.5265 8.94936C30.7993 8.53833 31.19 8.35149 31.7295 8.38263C32.424 8.42 32.8332 8.83103 32.951 9.61574C32.9696 9.73407 32.982 10.9609 32.982 13.0037V16.2048H36.9505V12.4743C36.9505 9.32926 36.9443 8.68157 36.9071 8.37018C36.7769 7.24917 36.3987 6.3835 35.76 5.73581C35.2081 5.18154 34.526 4.85146 33.6827 4.73936C33.3541 4.69577 32.5294 4.72068 32.2379 4.78296C31.5186 4.93865 30.9544 5.24382 30.4459 5.7545L30.1669 6.03475V0H26.2294V8.10238H26.2232ZM68.4072 0.124556C68.3018 0.373669 64.265 10.17 64.265 10.1825C64.265 10.1887 65.3192 10.1949 66.6151 10.1887H68.9652L71.0549 5.11303C72.2083 2.32297 73.1508 0.031139 73.1508 0.0186834C73.1508 0.00622781 72.0966 0 70.8069 0H68.463L68.4072 0.124556ZM17.5234 4.72691C16.6491 4.85769 15.9856 5.10058 15.3222 5.54275C13.989 6.4271 13.0775 7.928 12.8232 9.65933C12.7054 10.4565 12.755 11.4654 12.9535 12.2376C13.4433 14.1807 14.7393 15.6629 16.4507 16.2359C17.0708 16.4414 17.3002 16.4788 18.0629 16.4788C18.6148 16.4788 18.7822 16.4726 18.9806 16.429C19.7805 16.2546 20.3696 15.9494 20.8595 15.4574L21.1137 15.2021V16.211H24.9396V4.96979H21.1137V6.00361L20.9339 5.81677C20.475 5.33101 19.8487 4.9947 19.0736 4.80787C18.8132 4.74559 18.6892 4.73314 18.1993 4.72691C17.8831 4.72691 17.5855 4.72691 17.5358 4.72691H17.5234ZM42.8599 4.75805C41.7748 4.90129 40.6772 5.3746 39.8711 6.03475C38.2899 7.3239 37.521 9.39777 37.831 11.5277C38.1721 13.8756 39.8277 15.7128 42.1406 16.3106C42.6615 16.4414 43.1265 16.4975 43.7466 16.4975C44.8317 16.4975 45.6564 16.3106 46.5618 15.8622C48.267 15.0152 49.4017 13.4209 49.6808 11.4841C49.749 11.017 49.749 10.1887 49.6808 9.72784C49.5382 8.76876 49.1847 7.87195 48.639 7.11216C48.422 6.807 47.8763 6.23404 47.5787 6.00361C46.7168 5.33101 45.7061 4.90751 44.6085 4.76427C44.1683 4.70822 43.3001 4.70822 42.8661 4.76427L42.8599 4.75805ZM55.4847 4.75805C54.412 4.90129 53.4012 5.33101 52.5517 5.99738C52.2541 6.22781 51.7084 6.80077 51.4914 7.10593C50.9457 7.86572 50.5923 8.76253 50.4497 9.72161C50.3815 10.1825 50.3815 11.0108 50.4497 11.4779C50.8093 13.9752 52.6075 15.8809 55.0693 16.3729C55.5405 16.4663 55.8134 16.4912 56.3776 16.4912C57.4504 16.4912 58.3743 16.2795 59.2486 15.8249C61.5739 14.6229 62.7706 12.0384 62.2374 9.3604C61.7475 6.88796 59.7881 5.09435 57.2147 4.75805C56.7931 4.702 55.9188 4.702 55.4847 4.75805ZM0 4.98225C0 4.98225 1.07274 7.53565 2.3749 10.6309C3.68327 13.7323 4.74981 16.2795 4.74981 16.2982C4.74981 16.3169 4.36536 17.2386 3.8941 18.3471C3.42284 19.4557 3.04459 20.3712 3.04459 20.3774C3.04459 20.3836 3.99331 20.3836 5.15286 20.3774H7.26113L10.4297 12.7047C12.1722 8.4885 13.5983 5.01961 13.5983 5.00093C13.5983 4.96979 13.1767 4.96356 11.5149 4.96979H9.42521L8.14164 8.24562C7.43475 10.0455 6.85188 11.509 6.84568 11.4965C6.83948 11.4903 6.2628 10.0205 5.56211 8.22694L4.29715 4.97602H2.14547C0.961123 4.96356 0 4.96979 0 4.97602V4.98225ZM19.4643 8.3764C20.258 8.55701 20.8905 9.18602 21.1075 10.0019C21.1943 10.3257 21.1943 10.8613 21.1075 11.1851C20.8905 12.001 20.289 12.6051 19.4767 12.8231C19.1543 12.9102 18.621 12.9102 18.2985 12.8231C17.6041 12.6425 17.0088 12.1255 16.7545 11.4841C16.4755 10.7803 16.5623 9.89599 16.9654 9.30435C17.5234 8.49473 18.4598 8.14598 19.4643 8.3764ZM44.1683 8.38263C45.0302 8.53833 45.6999 9.17979 45.9107 10.0641C45.9789 10.3568 45.9727 10.8862 45.8983 11.1851C45.6937 11.9698 45.1108 12.5677 44.3419 12.7795C44.0752 12.8542 43.4242 12.8542 43.1637 12.7795C42.5312 12.6051 42.029 12.1816 41.7561 11.59C41.5949 11.2412 41.5453 11.017 41.5453 10.5935C41.5453 10.2136 41.5825 10.0205 41.7127 9.6967C41.8678 9.30435 42.1654 8.93691 42.5188 8.70648C42.9777 8.40131 43.604 8.28299 44.1745 8.38263H44.1683ZM56.7931 8.38263C57.531 8.51342 58.1449 9.00541 58.4177 9.6967C58.5479 10.0205 58.5851 10.2136 58.5851 10.5935C58.5851 11.0108 58.5355 11.2412 58.3743 11.59C58.1014 12.1754 57.5992 12.6051 56.9667 12.7795C56.7063 12.8542 56.049 12.848 55.7886 12.7795C55.0259 12.5677 54.4368 11.9698 54.2321 11.1851C54.1453 10.8613 54.1453 10.3257 54.2321 10.0019C54.4988 9.00541 55.3359 8.35149 56.3652 8.33904C56.483 8.33904 56.6753 8.35772 56.7993 8.3764L56.7931 8.38263ZM65.2014 11.1602C64.0542 11.3035 63.1427 12.1318 62.8947 13.259C62.8265 13.5704 62.8326 14.1247 62.9133 14.4423C63.1551 15.4201 63.9054 16.1487 64.8789 16.3542C65.0029 16.3791 65.2386 16.3978 65.4184 16.3978C66.1687 16.3978 66.764 16.1549 67.291 15.6193C67.8243 15.0838 68.0661 14.4983 68.0661 13.7261C68.0661 12.7857 67.6383 12.001 66.857 11.5214C66.3981 11.235 65.7346 11.0917 65.2014 11.1602ZM32.517 17.2573C31.7171 17.5251 31.3698 18.4281 31.7853 19.1443C31.8969 19.3311 32.1573 19.5616 32.3743 19.6674C32.5604 19.7546 32.5852 19.7608 32.9138 19.7608C33.2425 19.7608 33.2673 19.7608 33.4533 19.6674C33.7013 19.5491 33.9804 19.2813 34.092 19.0384C34.3958 18.3907 34.1168 17.6434 33.4595 17.3258C33.2611 17.2323 33.2115 17.2199 32.9634 17.2137C32.7464 17.2074 32.6472 17.2137 32.5232 17.2573H32.517ZM29.2057 17.3195C28.1454 17.5313 27.4447 18.2101 27.1781 19.2875C27.1409 19.4494 27.1099 19.6674 27.1037 19.9414L27.0851 20.3525H26.2294V21.2991L26.2418 22.2457H26.6634L27.0851 22.2644V26.7422H29.3856V22.2644H30.1669L30.9482 22.252V21.3053L30.9606 20.3587H29.3732L29.3918 20.147C29.4352 19.6799 29.6212 19.4245 29.987 19.3124C30.2351 19.2377 30.5885 19.2502 30.8552 19.3436C30.9482 19.3747 31.0288 19.4059 31.035 19.4059C31.0412 19.4059 31.0474 18.9699 31.0474 18.4405V17.4752L30.88 17.413C30.6009 17.3071 30.3219 17.2697 29.8692 17.2697C29.584 17.2697 29.3608 17.2884 29.1871 17.3258L29.2057 17.3195ZM38.6247 20.2217C38.1411 20.3276 37.7442 20.5642 37.49 20.9068L37.3598 21.0811V20.3525H35.0283V26.736H37.3598V24.9984C37.3598 23.9958 37.3722 23.1861 37.3908 23.0865C37.428 22.8561 37.5644 22.5758 37.6946 22.4824C38.0295 22.2271 38.5627 22.2831 38.786 22.6069C38.9596 22.8623 38.9596 22.8249 38.972 24.8739L38.9844 26.7422H41.3097V24.6497C41.3097 22.4263 41.2973 22.171 41.1795 21.7537C41.0617 21.3489 40.9066 21.0811 40.6214 20.7947C40.3486 20.5206 40.1129 20.3774 39.7595 20.2778C39.4805 20.1968 38.91 20.1719 38.6372 20.2342L38.6247 20.2217ZM44.5031 20.203C44.1249 20.2528 43.5668 20.477 43.2691 20.695C42.5933 21.187 42.1282 21.9593 41.9608 22.8561C41.8988 23.211 41.8988 23.9272 41.9608 24.2698C42.0724 24.849 42.2956 25.3659 42.6119 25.7831C43.0335 26.3436 43.635 26.7235 44.3047 26.8605C44.6705 26.9353 45.2782 26.9228 45.5882 26.8294C45.9417 26.7235 46.2393 26.5554 46.4936 26.3187L46.723 26.1007V26.7422H49.0235V20.3587H46.723V21.0189L46.5742 20.8569C46.2703 20.5331 45.8425 20.3151 45.3526 20.2279C45.1232 20.1906 44.7015 20.1781 44.4969 20.203H44.5031ZM53.5315 20.2279C53.1222 20.3151 52.6509 20.6016 52.4091 20.9254L52.3099 21.0562V20.3525H51.138L49.966 20.3649V23.5473L49.9536 26.7298H52.3099V24.9175C52.3099 22.9993 52.3099 22.9619 52.4463 22.7004C52.5703 22.4575 52.8122 22.3142 53.0974 22.3142C53.3454 22.3142 53.4819 22.3641 53.6369 22.5135C53.8849 22.7626 53.8787 22.6692 53.8849 24.8303V26.7298H56.2226L56.2102 24.413C56.1978 22.1212 56.1978 22.09 56.1358 21.8472C56.0986 21.7101 56.0056 21.4673 55.925 21.3053C55.8072 21.0625 55.7451 20.969 55.5591 20.7884C55.3173 20.5455 55.1127 20.4085 54.846 20.3151C54.4492 20.1719 53.9283 20.1345 53.5253 20.2217L53.5315 20.2279ZM59.6702 20.2279C58.6471 20.3898 57.81 20.9441 57.3077 21.7849C57.1589 22.0402 57.0411 22.3329 56.9481 22.6879C56.8737 22.9744 56.8675 23.0429 56.8675 23.5349C56.8675 24.1141 56.8923 24.3071 57.0287 24.7244C57.3822 25.8143 58.2627 26.5865 59.4408 26.8481C59.633 26.8917 59.8067 26.9041 60.2345 26.9041C60.8422 26.9041 61.0778 26.8605 61.5305 26.6799L61.7599 26.5865V25.5153L61.7723 24.4442L61.5801 24.5563C61.3011 24.7244 61.0654 24.7867 60.712 24.8054C60.3461 24.8241 60.1477 24.7867 59.8811 24.6497C59.6392 24.5251 59.447 24.3258 59.323 24.0643C59.2362 23.8836 59.23 23.8463 59.23 23.566C59.23 23.3169 59.2424 23.2297 59.2982 23.0989C59.4904 22.6194 59.9369 22.3329 60.5384 22.308C60.9662 22.2893 61.1398 22.3329 61.7537 22.6381C61.7661 22.6381 61.7723 22.171 61.7723 21.5794V20.5144L61.5863 20.4397C61.0282 20.2155 60.2903 20.1345 59.6702 20.2342V20.2279ZM64.9657 20.2279C63.1923 20.5393 62.0265 22.0963 62.2002 23.9272C62.2622 24.5749 62.4296 25.0794 62.7396 25.5465C63.1799 26.2129 63.8434 26.6426 64.7363 26.8419C65.1207 26.929 66.1067 26.9166 66.5221 26.8294C67.1608 26.6862 67.7313 26.3872 68.1405 25.9762C68.3328 25.7831 68.6428 25.3659 68.618 25.341C68.6118 25.3347 68.1653 25.1604 67.6259 24.9548L66.6461 24.5749L66.5035 24.7244C66.3237 24.905 66.1811 24.9922 65.9579 25.0483C65.2758 25.2289 64.5875 24.8676 64.4759 24.2698L64.4511 24.139H66.6399L68.8288 24.1265V23.5909C68.8288 23.1924 68.8102 22.9931 68.773 22.8125C68.618 22.09 68.339 21.542 67.8801 21.0936C67.446 20.6639 66.9562 20.4023 66.2989 20.2528C66.0075 20.1906 65.2634 20.1719 64.9657 20.2279ZM31.7543 23.5473V26.736H34.0858V20.3525H31.7543V23.5411V23.5473ZM65.902 22.0091C66.0633 22.0527 66.1625 22.1087 66.3113 22.2457C66.4539 22.3765 66.5345 22.5198 66.5717 22.6941L66.5965 22.8125H65.5362C64.3394 22.8125 64.4325 22.8374 64.5379 22.5634C64.7115 22.0963 65.2944 21.8596 65.902 22.0091ZM45.8611 22.3267C46.1773 22.4077 46.5246 22.6941 46.661 22.9931C46.9896 23.6906 46.661 24.494 45.9417 24.7555C45.7247 24.8365 45.3216 24.8427 45.0984 24.7742C44.7139 24.6559 44.3791 24.3196 44.2613 23.9397C44.2117 23.7778 44.2055 23.6844 44.2117 23.4851C44.2241 23.2609 44.2365 23.2048 44.3295 23.018C44.6085 22.4513 45.2286 22.1772 45.8611 22.3392V22.3267Z" fill="#4B26B3" />
</svg>