<svg width="114" height="40" viewBox="0 0 114 40" fill="none" xmlns="http://www.w3.org/2000/svg">
  <path d="M109.421 20.9819C108.854 21.6724 108.33 22.3769 107.721 23.011C106.701 24.0538 105.454 24.2793 104.065 23.8706C103.994 23.8424 103.909 23.8424 103.782 23.8283C103.966 24.392 103.711 24.8429 103.498 25.2938C103.002 26.3225 102.351 27.2243 101.486 27.9853C99.347 29.8594 95.989 29.3944 94.2179 27.6753C93.056 26.5339 92.3476 25.1529 91.9651 23.6029C91.3841 21.2919 91.285 18.9528 91.455 16.5854C91.6108 14.4717 91.9367 12.3721 92.6735 10.3712C93.1694 9.0325 93.807 7.79247 94.8838 6.82017C95.904 5.89015 97.0941 5.52378 98.4402 5.79151C100.07 6.11561 101.146 7.45428 101.161 9.21569C101.189 11.0053 100.792 12.7385 100.211 14.4154C99.2194 17.3041 97.7884 19.9532 95.8331 22.3065C95.6773 22.5038 95.5781 22.6729 95.6348 22.9406C95.9181 24.1383 96.499 25.1811 97.4058 25.9984C98.4827 26.9566 100.169 26.8861 101.401 25.8575C101.94 25.4066 102.365 24.8711 102.606 24.1947C102.705 23.9129 102.875 23.6592 103.031 23.3351C103.045 23.3492 103.045 23.3774 103.031 23.3351C102.053 22.4897 101.656 21.3765 101.642 20.1082C101.628 19.0937 101.713 18.0932 102.152 17.1491C102.209 17.0082 102.294 16.8813 102.365 16.7545C102.776 16.1345 103.513 16.1486 103.895 16.8109C104.193 17.3182 104.278 17.8959 104.278 18.4737C104.292 19.15 104.278 19.8264 104.278 20.5169C104.278 20.7142 104.32 20.9114 104.377 21.1087C104.533 21.6583 105.071 21.8274 105.496 21.4469C105.78 21.1933 106.035 20.8833 106.233 20.5592C106.8 19.6291 107.338 18.6709 107.877 17.7409C108.202 17.1913 108.67 16.825 109.279 16.6277C110.144 16.3459 110.767 16.5009 111.249 17.2618C111.702 17.9805 112.113 18.7555 112.382 19.5587C113.346 22.4333 113.941 25.4066 113.997 28.4503C114.04 31.0712 113.587 33.6218 112.184 35.8905C111.107 37.6237 109.662 38.9764 107.664 39.5683C103.952 40.6674 101.43 38.5396 100.735 35.4254C100.084 32.4945 101.586 30.268 103.683 28.9716C104.958 28.1684 106.36 27.633 107.877 27.478C108.231 27.4357 108.599 27.478 108.968 27.5202C109.251 27.5484 109.308 27.7175 109.109 27.9289C108.982 28.0698 108.826 28.1684 108.67 28.2812C107.707 28.9576 106.701 29.5776 105.808 30.3385C105.156 30.8881 104.604 31.5926 104.079 32.269C103.711 32.734 103.555 33.3118 103.64 33.9318C103.739 34.7209 104.306 35.2704 105.114 35.3268C105.723 35.3691 106.318 35.2986 106.871 35.045C108.953 34.1291 110.2 32.5931 110.512 30.3244C110.824 28.098 110.554 25.9138 110.115 23.7297C109.945 22.9124 109.718 22.1233 109.506 21.306C109.492 21.1792 109.449 21.0524 109.421 20.9819ZM95.2805 19.8123C95.3089 19.8123 95.3514 19.8264 95.3797 19.8264C95.5497 19.5446 95.7056 19.2628 95.8615 18.9809C97.3917 16.1768 98.681 13.2881 98.9219 10.0471C98.9644 9.55388 98.9219 9.0325 98.8085 8.5534C98.6669 7.96157 98.0859 7.67974 97.5334 7.94748C97.165 8.11657 96.7824 8.3984 96.5841 8.73659C96.2157 9.38479 95.904 10.0753 95.7198 10.7939C95.0963 13.2599 95.068 15.7822 95.1672 18.3046C95.2097 18.8118 95.2522 19.3191 95.2805 19.8123Z" fill="#2B41B7" />
  <path d="M46.2283 26.7875C45.6473 27.337 45.1231 27.8302 44.6272 28.3516C44.5422 28.4362 44.5563 28.6334 44.5705 28.7743C44.8397 30.9726 44.8822 33.1708 44.3722 35.3409C44.1596 36.2286 43.8904 37.1164 43.3662 37.8773C42.6011 38.9905 41.6093 39.7655 40.2349 39.9628C39.0164 40.1319 37.9962 39.7233 37.2453 38.751C36.3952 37.6518 36.2676 36.3977 36.4802 35.0731C36.8911 32.5931 38.393 30.8317 40.3057 29.338C40.3766 29.2816 40.4474 29.2112 40.5324 29.1689C41 28.9716 41.0992 28.6475 40.9575 28.1684C40.5891 26.8438 40.3766 25.4629 39.6398 24.251C39.4556 23.9551 39.2573 23.6733 38.9172 23.3069C38.8322 23.4338 38.7755 23.5888 38.6763 23.6874C38.1238 24.1242 37.5995 24.5892 37.0044 24.9697C36.3668 25.3924 35.7151 25.3079 35.12 24.8147C34.2415 24.082 33.7173 23.1237 33.3631 22.0669C32.7821 20.3337 33.0797 18.6991 33.8306 17.0927C34.4399 15.7963 36.0551 15.134 37.4153 15.5286C38.733 15.909 39.9232 16.529 40.9858 17.4027C41.1134 17.5154 41.255 17.6422 41.3542 17.7832C41.4251 17.8959 41.4817 18.065 41.4392 18.1636C41.3967 18.2482 41.1984 18.3327 41.085 18.3186C40.6458 18.2904 40.1924 18.2059 39.7532 18.1636C39.1156 18.1073 38.4638 18.0368 37.812 17.9945C37.2595 17.9663 36.8627 18.2059 36.636 18.7132C36.1401 19.8123 35.9276 20.9396 36.1543 22.1374C36.1826 22.2501 36.211 22.3628 36.2535 22.4755C36.4944 23.0815 36.7636 23.1519 37.2736 22.7292C37.7129 22.3769 38.1238 21.9964 38.5913 21.6583C39.8098 20.7705 40.9717 20.9114 41.8926 22.1233C42.8844 23.4197 43.6495 24.8429 43.9754 26.4634C43.9896 26.5057 44.0038 26.5479 44.0179 26.6466C44.1455 26.5761 44.2588 26.5338 44.358 26.4634C44.8539 26.1675 45.3356 25.8434 45.8315 25.5615C46.0866 25.4206 46.1574 25.2515 46.1574 24.9838C46.1291 22.7151 46.0582 20.4605 46.0866 18.1918C46.1291 15.4863 46.2283 12.7808 46.3841 10.0752C46.4408 8.9902 46.6817 7.90518 46.9084 6.82015C47.1634 5.56603 47.8435 5.27011 49.1187 5.56603C50.8331 5.94649 52.3208 7.84881 52.4767 9.51158C52.7317 12.0339 51.9666 14.2744 50.8189 16.4445C50.4505 17.1631 50.068 17.8677 49.6996 18.5864C49.6288 18.7273 49.5862 18.8823 49.6004 19.0796C49.6713 18.9809 49.7279 18.8964 49.7988 18.7977C50.3939 17.8818 51.0881 17.0645 51.9808 16.4304C53.6527 15.2608 55.5513 15.6976 56.5431 17.4872C57.0532 18.3891 57.294 19.3896 57.3932 20.4041C57.5207 21.6723 57.5632 22.9547 57.6908 24.2229C57.7474 24.9274 57.8324 25.6461 57.9883 26.3366C58.3 27.8161 59.7736 29.0421 61.2896 29.1971C61.4455 29.2112 61.6438 29.3662 61.7147 29.5212C61.7572 29.6057 61.6013 29.8594 61.488 29.9157C61.0771 30.0848 60.6662 30.2962 60.227 30.3385C58.4559 30.5217 56.9398 29.8876 55.6363 28.718C55.0129 28.1543 54.7295 27.3652 54.5736 26.5761C54.3186 25.2797 54.1344 23.9692 53.936 22.6587C53.7944 21.6864 53.7377 20.7 53.2985 19.7841C52.9584 19.0796 52.2216 18.9386 51.6407 19.46C51.4565 19.6291 51.2723 19.8123 51.1731 20.0237C50.8898 20.6578 50.5922 21.306 50.408 21.9683C49.9971 23.4478 49.8554 24.9838 49.7563 26.5197C49.7279 26.9002 49.7138 27.2948 49.6429 27.6752C49.5154 28.3234 48.9912 28.718 48.3536 28.563C47.8577 28.4502 47.3618 28.253 46.9225 27.9852C46.6675 27.8302 46.54 27.4779 46.3699 27.2102C46.3133 27.1398 46.2991 27.0129 46.2283 26.7875ZM48.9203 16.8249C48.9628 16.8249 49.0053 16.839 49.062 16.839C49.0903 16.7686 49.1328 16.6981 49.1612 16.6277C49.7563 14.8381 50.2663 13.0203 50.5355 11.1462C50.6914 10.0189 50.5922 8.90566 50.1247 7.84881C50.0538 7.69381 49.8554 7.48244 49.7421 7.49653C49.5862 7.52471 49.4446 7.72199 49.3312 7.8629C49.2604 7.96154 49.232 8.10245 49.2037 8.22928C49.1045 8.8352 48.9487 9.42703 48.9487 10.033C48.9061 12.3017 48.9203 14.5563 48.9203 16.8249ZM41.0283 31.198C40.3057 31.8321 39.6823 32.4944 39.2289 33.2976C38.7897 34.0586 38.6763 34.8618 38.8747 35.6932C38.9455 35.9609 39.1014 36.2427 39.2714 36.4541C39.569 36.8205 40.0365 36.8346 40.3624 36.4964C40.5749 36.2709 40.745 35.9891 40.83 35.6932C41.2409 34.2699 41.1559 32.8044 41.085 31.339C41.085 31.3108 41.0567 31.2826 41.0283 31.198Z" fill="#2B41B7" />
  <path d="M8.36952 16.7264C9.26215 16.6982 10.0273 16.7968 10.7357 17.1491C12.1101 17.7973 12.9602 18.9105 13.4136 20.3055C14.0228 22.1374 14.037 23.9693 13.0735 25.6884C11.7275 28.0698 8.52538 29.1549 6.07419 28.098C5.32325 27.7739 4.74233 27.2666 4.27476 26.6043C4.20392 26.5057 4.13307 26.4071 3.97722 26.3366C3.97722 26.4775 3.99139 26.6043 3.97722 26.7453C3.94888 27.1539 3.94888 27.5625 3.86387 27.9571C3.75052 28.4362 3.32546 28.6617 2.82955 28.5912C1.73856 28.4503 1.05846 27.8021 0.619232 26.8439C0.236677 26.0125 0.137496 25.1107 0.0666524 24.2088C-0.13171 21.616 0.123327 19.0373 0.690076 16.5009C1.05846 14.8381 1.46936 13.1894 2.19196 11.6535C2.91456 10.1176 3.96305 8.86343 5.35158 7.84886C7.20769 6.4961 10.3248 7.35566 11.2599 9.63845C11.6142 10.5121 11.4583 11.3576 11.1749 12.2172C10.6649 13.7954 9.78639 15.1622 8.68123 16.3741C8.59622 16.4586 8.51121 16.5573 8.36952 16.7264ZM7.5194 21.3906C7.5194 21.4469 7.50523 21.5033 7.50523 21.5597C7.23602 21.7147 6.96682 21.8697 6.68344 22.0247C5.9325 22.4615 5.33742 23.0111 5.11072 23.8706C4.88402 24.7161 5.13905 25.2798 5.91833 25.6602C6.69761 26.0407 7.49106 26.0125 8.29868 25.8011C9.78639 25.4066 10.8349 24.5752 11.0899 22.9829C11.2741 21.8556 11.1183 20.7565 10.594 19.7419C9.85724 18.3187 8.86543 17.7691 7.27853 18.0087C5.09655 18.3469 4.61481 19.0796 4.35977 20.4183C4.27476 20.8833 4.20392 21.3765 4.3031 21.8979C4.44479 21.8133 4.5298 21.7569 4.62898 21.7006C5.32325 21.3483 6.06002 21.0806 6.86764 21.151C7.08017 21.1792 7.2927 21.306 7.5194 21.3906ZM9.33299 11.3435C9.33299 11.2589 9.33299 11.2026 9.33299 11.1321C9.29049 10.7658 9.27632 10.3712 8.85126 10.188C8.44036 10.0189 8.10032 10.1739 7.7886 10.4417C7.67525 10.5262 7.5619 10.6248 7.47689 10.7376C7.00932 11.4139 6.51342 12.0621 6.10253 12.7667C5.54995 13.739 5.12488 14.7677 4.91235 15.8668C4.799 16.4023 4.88402 16.4868 5.40826 16.3741C5.53578 16.3459 5.6633 16.3177 5.79081 16.2754C7.98697 15.585 9.26215 13.1613 9.33299 11.3435Z" fill="#2B41B7" />
  <path d="M71.2927 22.56C71.2643 23.6168 71.406 24.6173 72.0578 25.491C72.4687 26.0264 73.0496 26.1814 73.7014 26.0969C74.4948 25.9842 75.2316 25.7305 75.7558 25.1105C76.3367 24.4482 76.8468 23.7296 77.3852 23.0391C77.5411 22.8418 77.6403 22.4895 77.9803 22.5882C78.3345 22.6868 78.4054 23.0391 78.3487 23.335C78.2495 23.9268 78.1503 24.5469 77.9095 25.0964C77.116 26.9142 75.8125 28.1965 73.8147 28.6474C71.4202 29.1688 69.054 28.0415 67.9489 25.8714C67.1554 24.3214 66.9996 22.6727 67.1271 20.9818C67.2404 19.5585 67.6797 18.2481 68.4164 17.008C69.3374 15.4298 70.7401 14.5562 72.4545 14.1052C73.2621 13.8939 74.0981 13.767 74.934 13.8939C76.1384 14.0911 77.0168 14.9789 77.2152 16.1766C77.3711 17.0926 77.2435 17.9803 76.8326 18.8117C75.7275 21.024 73.9706 22.3345 71.4485 22.5177C71.4202 22.5177 71.3777 22.5318 71.2927 22.56ZM71.236 20.2913C72.7804 19.9249 73.9706 19.1922 74.7782 17.924C75.0616 17.4871 75.2174 16.9798 75.0474 16.4585C75.0049 16.3457 74.8349 16.1766 74.7357 16.1907C74.3531 16.233 73.9422 16.2471 73.6163 16.4162C72.327 17.1349 71.5902 18.2903 71.236 19.6995C71.1935 19.8545 71.236 20.0377 71.236 20.2913Z" fill="#2B41B7" />
  <path d="M64.9451 12.513C65.6819 12.513 66.362 12.4989 67.0421 12.513C67.3538 12.5271 67.6655 12.5976 67.9772 12.668C68.2323 12.7244 68.4873 12.8371 68.5298 13.1471C68.5723 13.4571 68.4164 13.6967 68.1614 13.8094C67.6513 14.063 67.1413 14.2885 66.617 14.4717C66.1353 14.6408 65.611 14.7394 65.1718 14.8522C65.1718 15.6835 65.1576 16.5008 65.1718 17.3181C65.2427 20.0659 65.3135 22.7996 65.0443 25.5333C64.9735 26.2097 64.7893 26.9002 64.4917 27.5061C63.9675 28.5771 63.1457 28.3657 62.2672 27.9289C62.0972 27.8443 61.998 27.5202 61.9697 27.2807C61.8138 25.9702 61.6155 24.6597 61.573 23.3351C61.4738 20.7846 61.4596 18.2341 61.4029 15.6695C61.4029 15.5849 61.3888 15.5144 61.3888 15.3876C61.2471 15.4017 61.1337 15.4158 61.0062 15.4299C60.3119 15.5426 59.6177 15.6131 58.9376 15.3876C58.8101 15.3454 58.6967 15.3031 58.5834 15.2326C58.0166 14.8803 57.9599 14.1899 58.5267 13.8658C59.1643 13.4994 59.8585 13.2317 60.5528 12.978C61.1762 12.7526 61.2187 12.7948 61.2187 12.1466C61.2329 11.0616 61.2187 9.96249 61.2329 8.87746C61.2471 8.22926 61.2613 7.59516 61.3321 6.94696C61.3888 6.3974 61.7146 6.18603 62.2531 6.20012C63.2307 6.24239 64.8459 7.39788 64.8034 8.77882C64.7609 10.0189 64.8884 11.2589 64.9451 12.513Z" fill="#2B41B7" />
  <path d="M19.7186 18.0792C20.427 17.586 21.1071 17.0505 21.8439 16.6278C22.6232 16.1768 23.445 15.8386 24.3801 15.895C24.5501 15.9091 24.706 15.9232 24.876 15.9655C25.4286 16.0782 25.5419 16.3037 25.2869 16.8109C24.9752 17.4169 24.4651 17.8819 23.7992 18.0228C21.9856 18.4173 21.1071 19.6715 20.7671 21.3342C20.5546 22.3488 20.5687 23.4057 20.4695 24.4343C20.3845 25.1952 20.3562 25.9844 20.1578 26.7171C19.9595 27.478 19.4636 28.0699 18.6134 28.239C17.905 28.3799 17.2816 28.1262 16.8707 27.5062C16.3748 26.7594 16.2614 25.9139 16.2331 25.0543C16.1906 23.8002 16.2473 22.5461 16.2048 21.292C16.1622 20.1647 16.1056 19.0515 15.9355 17.9382C15.7797 16.8955 15.2838 16.5432 14.2211 16.4868C13.9236 16.4728 13.5552 16.5291 13.456 16.1487C13.371 15.8105 13.6686 15.6273 13.8953 15.4441C14.8871 14.6832 16.6015 14.3872 17.8483 15.5568C18.6276 16.3037 19.336 17.1069 19.7186 18.0792Z" fill="#2B41B7" />
  <path d="M84.5831 18.0792C85.2915 17.586 85.9433 17.0646 86.6659 16.6418C87.4452 16.1768 88.2953 15.8386 89.2446 15.895C89.4146 15.9091 89.5705 15.9232 89.7405 15.9655C90.2931 16.0782 90.4065 16.3037 90.1514 16.8109C89.8397 17.4169 89.3296 17.8819 88.6637 18.0228C86.8501 18.4173 85.9716 19.6715 85.6316 21.3342C85.4191 22.3488 85.4332 23.4057 85.334 24.4343C85.249 25.1952 85.2207 25.9844 85.0223 26.7171C84.824 27.478 84.3281 28.0699 83.4779 28.239C82.7553 28.3799 82.1744 28.1403 81.7635 27.5344C81.2535 26.7876 81.1401 25.9139 81.0976 25.0543C81.0551 23.8002 81.1118 22.5461 81.0693 21.292C81.0267 20.1788 80.9701 19.0515 80.8001 17.9382C80.6442 16.8955 80.1483 16.5432 79.0856 16.4868C78.7881 16.4728 78.4197 16.5291 78.3205 16.1487C78.2355 15.8105 78.5331 15.6273 78.7598 15.4441C79.7516 14.6832 81.466 14.3872 82.7128 15.5568C83.4921 16.3037 84.1864 17.1069 84.5831 18.0792Z" fill="#2B41B7" />
  <path d="M25.5986 22.1515C25.6695 20.8692 25.6695 19.5869 26.1087 18.3609C26.2362 18.0227 26.3779 17.6845 26.5479 17.3604C27.058 16.3881 27.9648 16.0218 28.9991 15.9654C29.7642 15.9231 30.1751 16.4163 30.0476 17.1773C29.9626 17.6705 29.8067 18.1636 29.7642 18.6568C29.5659 20.5873 29.5092 22.5179 30.0051 24.4202C30.0618 24.6738 30.1751 24.8993 30.2743 25.1388C30.671 26.252 32.2154 26.4352 32.9239 25.7307C33.1647 25.477 33.3914 25.2093 33.6323 24.9556C33.7882 24.8006 33.944 24.6175 34.1282 24.5188C34.4541 24.3356 34.695 24.4765 34.695 24.857C34.695 25.0402 34.6666 25.2375 34.5958 25.4066C33.8873 27.3793 31.9179 29.0703 29.41 28.6335C27.0438 28.2248 26.1937 27.013 25.8537 25.012C25.6978 24.0679 25.6836 23.0956 25.5986 22.1515Z" fill="#2B41B7" />
  <path d="M28.6451 14.1337C28.0216 14.1901 27.4974 13.866 27.1857 13.2178C26.8881 12.5977 26.9448 11.9918 27.3699 11.4423C27.8516 10.8082 28.56 10.7377 29.2543 10.8786C29.7361 10.9772 30.2036 11.2309 30.6003 11.5127C31.0679 11.8368 31.1529 12.3159 30.9404 12.8655C30.6287 13.6828 29.8352 14.1337 28.6451 14.1337Z" fill="#FF9900" />
  <path d="M29.2401 6.24021C29.1686 6.54335 29.115 7.09151 29.0846 7.58129C29.0693 7.82804 29.0597 8.06359 29.0568 8.25102C29.0554 8.34463 29.0556 8.42729 29.0577 8.49383C29.0597 8.55648 29.0636 8.61573 29.0725 8.65582C29.0735 8.66003 29.0746 8.66421 29.076 8.66832C29.1157 8.7913 29.1891 8.88784 29.2928 8.9486C29.393 9.00723 29.5093 9.02558 29.6269 9.01708C29.8594 9.01512 30.0522 8.89334 30.166 8.71708C30.2544 8.58032 30.3121 8.4056 30.358 8.24389C30.3757 8.18137 30.3915 8.12158 30.4066 8.06457C30.4327 7.96593 30.4565 7.87559 30.4844 7.79389C30.757 7.05949 30.8757 6.42402 31.005 5.73215L31.005 5.73209C31.0436 5.52531 31.0832 5.31348 31.1281 5.09248C31.129 5.08821 31.1296 5.08391 31.1301 5.07957C31.1743 4.66865 31.2624 4.19608 31.3379 3.7908L31.3379 3.7908L31.3411 3.77397C31.4125 3.42739 31.4908 3.08067 31.5697 2.73081L31.5834 2.67002C31.667 2.29974 31.7509 1.92595 31.8272 1.54794C31.9037 1.18457 31.9649 0.821636 32.0255 0.46195L32.0255 0.461947L32.0257 0.460585L32.026 0.458563L32.0263 0.456511C32.0455 0.318146 32.0118 0.130559 31.8295 0.0453189C31.6466 -0.0576001 31.4702 0.0317788 31.3811 0.144153C31.2575 0.287842 31.1306 0.451207 31.0337 0.617727L31.0329 0.619211C30.7066 1.19637 30.4902 1.80378 30.2777 2.41468L30.2775 2.4152C29.8497 3.66093 29.5444 4.95279 29.2409 6.23672L29.2401 6.24021Z" fill="#FF9900" />
  <path d="M29.2401 6.24021C29.1686 6.54335 29.115 7.09151 29.0846 7.58129C29.0693 7.82804 29.0597 8.06359 29.0568 8.25102C29.0554 8.34463 29.0556 8.42729 29.0577 8.49383C29.0597 8.55648 29.0636 8.61573 29.0725 8.65582C29.0735 8.66003 29.0746 8.66421 29.076 8.66832C29.1157 8.7913 29.1891 8.88784 29.2928 8.9486C29.393 9.00723 29.5093 9.02558 29.6269 9.01708C29.8594 9.01512 30.0522 8.89334 30.166 8.71708C30.2544 8.58032 30.3121 8.4056 30.358 8.24389C30.3757 8.18137 30.3915 8.12158 30.4066 8.06457C30.4327 7.96593 30.4565 7.87559 30.4844 7.79389C30.757 7.05949 30.8757 6.42402 31.005 5.73215L31.005 5.73209C31.0436 5.52531 31.0832 5.31348 31.1281 5.09248C31.129 5.08821 31.1296 5.08391 31.1301 5.07957C31.1743 4.66865 31.2624 4.19608 31.3379 3.7908L31.3379 3.7908L31.3411 3.77397C31.4125 3.42739 31.4908 3.08067 31.5697 2.73081L31.5834 2.67002C31.667 2.29974 31.7509 1.92595 31.8272 1.54794C31.9037 1.18457 31.9649 0.821636 32.0255 0.46195L32.0255 0.461947L32.0257 0.460585L32.026 0.458563L32.0263 0.456511C32.0455 0.318146 32.0118 0.130559 31.8295 0.0453189C31.6466 -0.0576001 31.4702 0.0317788 31.3811 0.144153C31.2575 0.287842 31.1306 0.451207 31.0337 0.617727L31.0329 0.619211C30.7066 1.19637 30.4902 1.80378 30.2777 2.41468L30.2775 2.4152C29.8497 3.66093 29.5444 4.95279 29.2409 6.23672L29.2401 6.24021Z" stroke="#FF9900" />
  <path d="M24.4725 7.6087C24.6412 7.871 24.9989 8.29144 25.3307 8.65458C25.4979 8.83753 25.661 9.00861 25.7941 9.14135C25.8605 9.20765 25.9203 9.26513 25.9697 9.31002C26.0163 9.35228 26.0617 9.39083 26.0968 9.41239C26.1005 9.41466 26.1043 9.41675 26.1082 9.41868C26.2245 9.4761 26.3453 9.49105 26.4614 9.45946C26.5735 9.42898 26.6678 9.35886 26.7437 9.26903C26.9044 9.10193 26.951 8.8796 26.9034 8.67552C26.8664 8.51718 26.7807 8.35419 26.6961 8.20874C26.6634 8.15252 26.6314 8.09957 26.6008 8.04908L26.6008 8.04907C26.5479 7.96171 26.4994 7.8817 26.4599 7.80488C26.1206 7.09849 25.7454 6.57078 25.3368 5.99624L25.3368 5.9962C25.2147 5.82449 25.0896 5.64857 24.9616 5.46247C24.9591 5.45887 24.9565 5.4554 24.9537 5.45204C24.6883 5.13399 24.4091 4.74171 24.1696 4.40529L24.1597 4.39132C23.9597 4.09872 23.7644 3.8012 23.5672 3.50099L23.533 3.44882C23.3243 3.1311 23.1134 2.81068 22.8941 2.49271C22.6856 2.18479 22.4666 1.88815 22.2496 1.59415L22.2496 1.59414L22.2488 1.59303L22.2476 1.59138L22.2463 1.58974C22.1599 1.47961 22.0012 1.37286 21.8127 1.44337C21.611 1.502 21.5524 1.69011 21.5713 1.83198C21.5887 2.02029 21.6179 2.22468 21.6704 2.4098L21.6709 2.41144C21.8595 3.04644 22.1464 3.62424 22.4385 4.20168L22.4388 4.20217C23.0384 5.37576 23.7567 6.49415 24.4705 7.60568L24.4725 7.6087Z" fill="#FF9900" />
  <path d="M24.4725 7.6087C24.6412 7.871 24.9989 8.29144 25.3307 8.65458C25.4979 8.83753 25.661 9.00861 25.7941 9.14135C25.8605 9.20765 25.9203 9.26513 25.9697 9.31002C26.0163 9.35228 26.0617 9.39083 26.0968 9.41239C26.1005 9.41466 26.1043 9.41675 26.1082 9.41868C26.2245 9.4761 26.3453 9.49105 26.4614 9.45946C26.5735 9.42898 26.6678 9.35886 26.7437 9.26903C26.9044 9.10193 26.951 8.8796 26.9034 8.67552C26.8664 8.51718 26.7807 8.35419 26.6961 8.20874C26.6634 8.15252 26.6314 8.09957 26.6008 8.04908L26.6008 8.04907C26.5479 7.96171 26.4994 7.8817 26.4599 7.80488C26.1206 7.09849 25.7454 6.57078 25.3368 5.99624L25.3368 5.9962C25.2147 5.82449 25.0896 5.64857 24.9616 5.46247C24.9591 5.45887 24.9565 5.4554 24.9537 5.45204C24.6883 5.13399 24.4091 4.74171 24.1696 4.40529L24.1597 4.39132C23.9597 4.09872 23.7644 3.8012 23.5672 3.50099L23.533 3.44882C23.3243 3.1311 23.1134 2.81068 22.8941 2.49271C22.6856 2.18479 22.4666 1.88815 22.2496 1.59415L22.2496 1.59414L22.2488 1.59303L22.2476 1.59138L22.2463 1.58974C22.1599 1.47961 22.0012 1.37286 21.8127 1.44337C21.611 1.502 21.5524 1.69011 21.5713 1.83198C21.5887 2.02029 21.6179 2.22468 21.6704 2.4098L21.6709 2.41144C21.8595 3.04644 22.1464 3.62424 22.4385 4.20168L22.4388 4.20217C23.0384 5.37576 23.7567 6.49415 24.4705 7.60568L24.4725 7.6087Z" stroke="#FF9900" />
  <path d="M23.0592 13.0344C23.3687 13.0817 23.8842 13.1346 24.4157 13.1786C24.6642 13.1747 24.9011 13.1659 25.0892 13.1543C25.1832 13.1485 25.266 13.1418 25.3326 13.1346C25.3952 13.1278 25.4543 13.1193 25.4938 13.1073C25.4979 13.1061 25.502 13.1046 25.5061 13.103C25.6263 13.0541 25.7174 12.9738 25.7702 12.8662C25.8212 12.7624 25.8306 12.6457 25.813 12.5296C25.793 12.2993 25.656 12.1176 25.4705 12.0183C25.3265 11.9413 25.1469 11.8976 24.9812 11.8647C24.9172 11.8519 24.856 11.8409 24.7977 11.8304C24.6968 11.8122 24.6044 11.7955 24.5203 11.7742C23.763 11.5609 23.1167 11.4924 22.4131 11.4178L22.4131 11.4178C22.2028 11.3956 21.9874 11.3727 21.7623 11.3453C21.758 11.3448 21.7536 11.3445 21.7492 11.3444C21.3339 11.3323 20.8533 11.2816 20.4412 11.2382L20.4241 11.2364C20.0711 11.1923 19.7175 11.1416 19.3606 11.0905L19.2986 11.0816C18.9209 11.0275 18.5397 10.9733 18.1549 10.9269C17.7847 10.8792 17.4161 10.8466 17.0508 10.8144L17.0494 10.8143L17.0474 10.8141L17.0453 10.814C16.9051 10.8057 16.7197 10.8537 16.6483 11.041C16.5593 11.2303 16.6626 11.3984 16.7822 11.478C16.9358 11.5894 17.1094 11.7026 17.2838 11.7857L17.2854 11.7864C17.8893 12.0652 18.5149 12.2327 19.1438 12.3961L19.1444 12.3962C20.0478 12.6271 20.9713 12.7495 21.8967 12.8721C22.2843 12.9235 22.6723 12.9749 23.0592 13.0344Z" fill="#FF9900" />
  <path d="M23.0592 13.0344C23.3687 13.0817 23.8842 13.1346 24.4157 13.1786C24.6642 13.1747 24.9011 13.1659 25.0892 13.1543C25.1832 13.1485 25.266 13.1418 25.3326 13.1346C25.3952 13.1278 25.4543 13.1193 25.4938 13.1073C25.4979 13.1061 25.502 13.1046 25.5061 13.103C25.6263 13.0541 25.7174 12.9738 25.7702 12.8662C25.8212 12.7624 25.8306 12.6457 25.813 12.5296C25.793 12.2993 25.656 12.1176 25.4705 12.0183C25.3265 11.9413 25.1469 11.8976 24.9812 11.8647C24.9172 11.8519 24.856 11.8409 24.7977 11.8304C24.6968 11.8122 24.6044 11.7955 24.5203 11.7742C23.763 11.5609 23.1167 11.4924 22.4131 11.4178L22.4131 11.4178C22.2028 11.3956 21.9874 11.3727 21.7623 11.3453C21.758 11.3448 21.7536 11.3445 21.7492 11.3444C21.3339 11.3323 20.8533 11.2816 20.4412 11.2382L20.4241 11.2364C20.0711 11.1923 19.7175 11.1416 19.3606 11.0905L19.2986 11.0816C18.9209 11.0275 18.5397 10.9733 18.1549 10.9269C17.7847 10.8792 17.4161 10.8466 17.0508 10.8144L17.0494 10.8143L17.0474 10.8141L17.0453 10.814C16.9051 10.8057 16.7197 10.8537 16.6483 11.041C16.5593 11.2303 16.6626 11.3984 16.7822 11.478C16.9358 11.5894 17.1094 11.7026 17.2838 11.7857L17.2854 11.7864C17.8893 12.0652 18.5149 12.2327 19.1438 12.3961L19.1444 12.3962C20.0478 12.6271 20.9713 12.7495 21.8967 12.8721C22.2843 12.9235 22.6723 12.9749 23.0592 13.0344Z" stroke="#FF9900" />
  <path d="M33.6239 7.68855C33.3789 7.88242 32.9953 8.27958 32.6662 8.64526C32.5005 8.82948 32.3462 9.00843 32.2271 9.15375C32.1676 9.22633 32.1163 9.29133 32.0765 9.34487C32.039 9.39526 32.0051 9.44415 31.9872 9.48113C31.9853 9.48502 31.9836 9.489 31.9821 9.49305C31.9366 9.61405 31.9341 9.73508 31.9777 9.84669C32.0197 9.95441 32.0995 10.0405 32.1972 10.1064C32.3809 10.2481 32.608 10.2713 32.8072 10.2032C32.9618 10.1503 33.116 10.0487 33.2527 9.95008C33.3056 9.91194 33.3553 9.87476 33.4026 9.8393C33.4845 9.77795 33.5596 9.72177 33.6323 9.67481C34.3039 9.26644 34.793 8.84087 35.3256 8.37752L35.3257 8.37748C35.4848 8.239 35.6479 8.09714 35.8208 7.95137C35.8242 7.94855 35.8274 7.94558 35.8304 7.94247C36.1212 7.64723 36.4848 7.33062 36.7966 7.05909L36.8095 7.04782C37.0816 6.81986 37.359 6.59596 37.639 6.37004L37.6877 6.33078C37.9839 6.09165 38.2827 5.84999 38.5781 5.60035C38.8646 5.36233 39.1388 5.11519 39.4104 4.87026L39.4105 4.87025L39.4115 4.86932L39.413 4.86793L39.4145 4.86651C39.5158 4.76972 39.6062 4.60171 39.5163 4.42248C39.4369 4.22898 39.2427 4.19039 39.1027 4.22367C38.9162 4.26026 38.7148 4.31026 38.535 4.38128L38.5334 4.38192C37.9178 4.63382 37.3694 4.97715 36.822 5.32564L36.8215 5.32594C35.7095 6.03994 34.6649 6.86567 33.6267 7.68632L33.6239 7.68855Z" fill="#FF9900" />
  <path d="M33.6239 7.68855C33.3789 7.88242 32.9953 8.27958 32.6662 8.64526C32.5005 8.82948 32.3462 9.00843 32.2271 9.15375C32.1676 9.22633 32.1163 9.29133 32.0765 9.34487C32.039 9.39526 32.0051 9.44415 31.9872 9.48113C31.9853 9.48502 31.9836 9.489 31.9821 9.49305C31.9366 9.61405 31.9341 9.73508 31.9777 9.84669C32.0197 9.95441 32.0995 10.0405 32.1972 10.1064C32.3809 10.2481 32.608 10.2713 32.8072 10.2032C32.9618 10.1503 33.116 10.0487 33.2527 9.95008C33.3056 9.91194 33.3553 9.87476 33.4026 9.8393C33.4845 9.77795 33.5596 9.72177 33.6323 9.67481C34.3039 9.26644 34.793 8.84087 35.3256 8.37752L35.3257 8.37748C35.4848 8.239 35.6479 8.09714 35.8208 7.95137C35.8242 7.94855 35.8274 7.94558 35.8304 7.94247C36.1212 7.64723 36.4848 7.33062 36.7966 7.05909L36.8095 7.04782C37.0816 6.81986 37.359 6.59596 37.639 6.37004L37.6877 6.33078C37.9839 6.09165 38.2827 5.84999 38.5781 5.60035C38.8646 5.36233 39.1388 5.11519 39.4104 4.87026L39.4105 4.87025L39.4115 4.86932L39.413 4.86793L39.4145 4.86651C39.5158 4.76972 39.6062 4.60171 39.5163 4.42248C39.4369 4.22898 39.2427 4.19039 39.1027 4.22367C38.9162 4.26026 38.7148 4.31026 38.535 4.38128L38.5334 4.38192C37.9178 4.63382 37.3694 4.97715 36.822 5.32564L36.8215 5.32594C35.7095 6.03994 34.6649 6.86567 33.6267 7.68632L33.6239 7.68855Z" stroke="#FF9900" />
  <path d="M35.2899 11.555C34.9779 11.5807 34.4504 11.6529 33.9725 11.7749C33.7317 11.8363 33.5034 11.8997 33.3232 11.9546C33.2332 11.9821 33.1542 12.0077 33.0912 12.0302C33.0318 12.0513 32.9763 12.0732 32.9407 12.0941C32.937 12.0963 32.9334 12.0986 32.9298 12.1011C32.8244 12.1766 32.7546 12.2758 32.7284 12.3926C32.7031 12.5054 32.7213 12.6211 32.7657 12.7298C32.8391 12.9492 33.0149 13.0941 33.2186 13.1477C33.3766 13.1892 33.5615 13.1901 33.7304 13.1837C33.7956 13.1813 33.8577 13.1778 33.9168 13.1745L33.9169 13.1745C34.0193 13.1689 34.113 13.1637 34.1998 13.1649C35.0141 13.1294 35.495 13.0862 35.8212 13.0568C36.0453 13.0367 36.1964 13.0231 36.3324 13.0231L36.3325 13.0231C36.5422 12.996 36.7571 12.9683 36.9823 12.9428C36.9867 12.9423 36.991 12.9416 36.9953 12.9407C37.402 12.8562 37.8812 12.7941 38.2922 12.7409L38.3093 12.7387C38.6629 12.6997 39.0186 12.667 39.3776 12.6341L39.44 12.6283C39.82 12.5935 40.2034 12.5578 40.5885 12.5137C40.9597 12.4744 41.3258 12.4206 41.6885 12.3673L41.6885 12.3672L41.6899 12.367L41.692 12.3667L41.694 12.3664C41.8323 12.3419 42.0014 12.2523 42.0268 12.0536C42.069 11.8489 41.9292 11.7094 41.7943 11.6597C41.6188 11.5869 41.4235 11.5171 41.2344 11.4767L41.2327 11.4764C40.5801 11.3452 39.9324 11.3273 39.2826 11.3142L39.282 11.3142C38.1928 11.2964 37.3756 11.367 36.3836 11.4527C36.1703 11.4711 35.9489 11.4903 35.715 11.5094L35.2899 11.555Z" fill="#FF9900" />
  <path d="M35.2899 11.555C34.9779 11.5807 34.4504 11.6529 33.9725 11.7749C33.7317 11.8363 33.5034 11.8997 33.3232 11.9546C33.2332 11.9821 33.1542 12.0077 33.0912 12.0302C33.0318 12.0513 32.9763 12.0732 32.9407 12.0941C32.937 12.0963 32.9334 12.0986 32.9298 12.1011C32.8244 12.1766 32.7546 12.2758 32.7284 12.3926C32.7031 12.5054 32.7213 12.6211 32.7657 12.7298C32.8391 12.9492 33.0149 13.0941 33.2186 13.1477C33.3766 13.1892 33.5615 13.1901 33.7304 13.1837C33.7956 13.1813 33.8577 13.1778 33.9168 13.1745L33.9169 13.1745C34.0193 13.1689 34.113 13.1637 34.1998 13.1649C35.0141 13.1294 35.495 13.0862 35.8212 13.0568C36.0453 13.0367 36.1964 13.0231 36.3324 13.0231L36.3325 13.0231C36.5422 12.996 36.7571 12.9683 36.9823 12.9428C36.9867 12.9423 36.991 12.9416 36.9953 12.9407C37.402 12.8562 37.8812 12.7941 38.2922 12.7409L38.3093 12.7387C38.6629 12.6997 39.0186 12.667 39.3776 12.6341L39.44 12.6283C39.82 12.5935 40.2034 12.5578 40.5885 12.5137C40.9597 12.4744 41.3258 12.4206 41.6885 12.3673L41.6885 12.3672L41.6899 12.367L41.692 12.3667L41.694 12.3664C41.8323 12.3419 42.0014 12.2523 42.0268 12.0536C42.069 11.8489 41.9292 11.7094 41.7943 11.6597C41.6188 11.5869 41.4235 11.5171 41.2344 11.4767L41.2327 11.4764C40.5801 11.3452 39.9324 11.3273 39.2826 11.3142L39.282 11.3142C38.1928 11.2964 37.3756 11.367 36.3836 11.4527C36.1703 11.4711 35.9489 11.4903 35.715 11.5094L35.2899 11.555Z" stroke="#FF9900" />
</svg>